<svg width="24" height="24" viewBox="0 0 24 24" fill="none" xmlns="http://www.w3.org/2000/svg">
<path d="M11.6307 5.40702L12 5.81179L12.3693 5.40702C13.4351 4.23901 14.9276 3.55135 16.5078 3.50001C19.2656 3.5042 21.5 5.74117 21.5 8.5C21.5 10.2792 20.4097 12.2257 18.9519 14.0657C17.7468 15.5867 16.3508 16.9632 15.2595 18.0393C15.0417 18.2541 14.836 18.4569 14.6464 18.6464L12.3664 20.9264L12.3662 20.9267C12.3194 20.9736 12.2558 20.9999 12.1896 21H11.8104C11.7442 20.9999 11.6806 20.9736 11.6338 20.9267L11.6336 20.9264L9.35355 18.6464C9.16396 18.4569 8.9583 18.2541 8.74052 18.0393C7.64915 16.9632 6.25324 15.5867 5.04815 14.0657C3.59027 12.2257 2.5 10.2792 2.5 8.5C2.5 5.74117 4.73438 3.5042 7.49223 3.50001C9.07237 3.55135 10.5649 4.23901 11.6307 5.40702Z" stroke="#7D60F3"/>
</svg>
